<svg xmlns="http://www.w3.org/2000/svg" width="480" height="440" class="">
    <defs>
        <style/>
    </defs>
    <style>@keyframes animation-gauge{0%{stroke-dasharray:0 329}}@keyframes animation-rainbow{0%,to{color:#7f00ff;fill:#7f00ff}14%{color:#a933ff;fill:#a933ff}29%{color:#007fff;fill:#007fff}43%{color:#00ff7f;fill:#00ff7f}57%{color:#ff0;fill:#ff0}71%{color:#ff7f00;fill:#ff7f00}86%{color:red;fill:red}}svg{font-family:-apple-system,BlinkMacSystemFont,Segoe UI,Helvetica,Arial,sans-serif,Apple Color Emoji,Segoe UI Emoji;font-size:14px;color:#777}h2{margin:8px 0 2px;padding:0;color:#0366d6;font-weight:400;font-size:16px}h2 svg{fill:currentColor}section&gt;.field{margin-left:5px;margin-right:5px}.field{display:flex;align-items:center;margin-bottom:2px;white-space:nowrap}.field svg{margin:0 8px;fill:#959da5;flex-shrink:0}.field.error{color:#cb2431}.field.error svg{fill:#cb2431}.row{display:flex;flex-wrap:wrap}.row section{flex:1 1 0}.column{display:flex;flex-direction:column;align-items:center}#metrics-end,.fill-width{width:100%}.label{background-color:#58a6ff30;color:#0366d6;padding:0 10px;font-weight:500;line-height:22px;margin:2px 5px;white-space:nowrap;border-radius:32px;font-size:12px}.categories,.category{display:flex;align-items:center}.categories{justify-content:space-around;margin-top:4px}.category{flex-direction:column;flex:1 1 0}.gauge{stroke-linecap:round;fill:none}.gauge-arc,.gauge-base{stroke:currentColor;stroke-width:10}.gauge-base{stroke-opacity:.2}.gauge-arc{fill:none;stroke-dashoffset:0;animation-delay:250ms;animation:animation-gauge 1s ease forwards}.gauge text,.gauge text.secondary{fill:currentColor;font-family:monospace;text-anchor:middle}.gauge text{font-size:40px;font-weight:600}.gauge text.secondary{font-size:25px}.gauge .title{font-size:18px;color:#777}.topics{display:flex;flex-wrap:wrap}.leetcode.subsection{padding-left:28px}.leetcode .topics{margin-left:20px}.leetcode .count{font-size:10px;color:#666}.leetcode .easy.gauge .gauge-arc,.leetcode .fundamental .dot{color:#2cbb5d}.leetcode .intermediate .dot,.leetcode .medium.gauge .gauge-arc{color:#ffc01e}.leetcode .advanced .dot,.leetcode .hard.gauge .gauge-arc{color:#ef4743}.leetcode .all.gauge .gauge-arc{color:#ffa116}.leetcode{align-items:flex-start}.leetcode .infos{margin-bottom:3px}.leetcode .infos .date{font-size:10px;color:#666}code,span.code{background-color:#7777771f;padding:1px 5px;font-size:80%;border-radius:6px;color:#777;font-family:SFMono-Regular,Consolas,Liberation Mono,Menlo,monospace}code{display:inline-block}span.code{margin:0 4px -3px}:root{--color-calendar-graph-day-bg:#ebedf0;--color-calendar-graph-day-border:rgba(27,31,35,0.06);--color-calendar-graph-day-L1-bg:#9be9a8;--color-calendar-graph-day-L2-bg:#40c463;--color-calendar-graph-day-L3-bg:#30a14e;--color-calendar-graph-day-L4-bg:#216e39;--color-calendar-halloween-graph-day-L1-bg:#ffee4a;--color-calendar-halloween-graph-day-L2-bg:#ffc501;--color-calendar-halloween-graph-day-L3-bg:#fe9600;--color-calendar-halloween-graph-day-L4-bg:#03001c;--color-calendar-winter-graph-day-L1-bg:#0a3069;--color-calendar-winter-graph-day-L2-bg:#0969da;--color-calendar-winter-graph-day-L3-bg:#54aeff;--color-calendar-winter-graph-day-L4-bg:#b6e3ff;--color-calendar-graph-day-L4-border:rgba(27,31,35,0.06);--color-calendar-graph-day-L3-border:rgba(27,31,35,0.06);--color-calendar-graph-day-L2-border:rgba(27,31,35,0.06);--color-calendar-graph-day-L1-border:rgba(27,31,35,0.06)}</style>
    <style/>
    <foreignObject x="0" y="0" width="100%" height="100%">
        <div xmlns="http://www.w3.org/1999/xhtml" xmlns:xlink="http://www.w3.org/1999/xlink" class="items-wrapper">
            <section>
                <h2 class="field">
                    <svg xmlns="http://www.w3.org/2000/svg" viewBox="0 0 16 16" width="16" height="16">
                        <path fill-rule="evenodd" d="M4.75 2.5a.25.25 0 00-.25.25v9.91l3.023-2.489a.75.75 0 01.954 0l3.023 2.49V2.75a.25.25 0 00-.25-.25h-6.5zM3 2.75C3 1.784 3.784 1 4.75 1h6.5c.966 0 1.75.784 1.75 1.75v11.5a.75.75 0 01-1.227.579L8 11.722l-3.773 3.107A.75.75 0 013 14.25V2.75z"/>
                    </svg>
                    Anilist
                </h2>
                <div class="row">
                    <section>
                        <div class="field error">
                            <svg xmlns="http://www.w3.org/2000/svg" viewBox="0 0 16 16" width="16" height="16">
                                <path fill-rule="evenodd" d="M2.343 13.657A8 8 0 1113.657 2.343 8 8 0 012.343 13.657zM6.03 4.97a.75.75 0 00-1.06 1.06L6.94 8 4.97 9.97a.75.75 0 101.06 1.06L8 9.06l1.97 1.97a.75.75 0 101.06-1.06L9.06 8l1.97-1.97a.75.75 0 10-1.06-1.06L8 6.94 6.03 4.97z"/>
                            </svg>
                            API error: 403
                        </div>
                    </section>
                </div>
            </section>
            <section>
                <h2 class="field">
                    <svg xmlns="http://www.w3.org/2000/svg" viewBox="0 0 16 16" width="16" height="16">
                        <path fill-rule="evenodd" d="M2.5 3.5v3h3v-3h-3zM2 2a1 1 0 00-1 1v4a1 1 0 001 1h4a1 1 0 001-1V3a1 1 0 00-1-1H2zm4.655 8.595a.75.75 0 010 1.06L4.03 14.28a.75.75 0 01-1.06 0l-1.5-1.5a.75.75 0 111.06-1.06l.97.97 2.095-2.095a.75.75 0 011.06 0zM9.75 2.5a.75.75 0 000 1.5h5.5a.75.75 0 000-1.5h-5.5zm0 5a.75.75 0 000 1.5h5.5a.75.75 0 000-1.5h-5.5zm0 5a.75.75 0 000 1.5h5.5a.75.75 0 000-1.5h-5.5z"/>
                    </svg>
                    LeetCode statistics for aksueikava
                </h2>
                <section>
                    <div class="row fill-width leetcode scores">
                        <section class="categories">
                            <div class="category column">
                                <svg xmlns="http://www.w3.org/2000/svg" viewBox="0 0 120 120" width="50" height="50" class="gauge all">
                                    <circle class="gauge-base" r="53" cx="60" cy="60"/>
                                    <circle class="gauge-arc" transform="rotate(-90 60 60)" r="53" cx="60" cy="60" stroke-dasharray="3.4019346230820546 329"/>
                                    <text x="60" y="50" dominant-baseline="central">31</text>
                                    <text x="60" y="80" dominant-baseline="central" class="secondary">/2998</text>
                                </svg>
                                <span class="title">All</span>
                            </div>
                            <div class="category column">
                                <svg xmlns="http://www.w3.org/2000/svg" viewBox="0 0 120 120" width="50" height="50" class="gauge easy">
                                    <circle class="gauge-base" r="53" cx="60" cy="60"/>
                                    <circle class="gauge-arc" transform="rotate(-90 60 60)" r="53" cx="60" cy="60" stroke-dasharray="2.5669700910273083 329"/>
                                    <text x="60" y="50" dominant-baseline="central">6</text>
                                    <text x="60" y="80" dominant-baseline="central" class="secondary">/769</text>
                                </svg>
                                <span class="title">Easy</span>
                            </div>
                            <div class="category column">
                                <svg xmlns="http://www.w3.org/2000/svg" viewBox="0 0 120 120" width="50" height="50" class="gauge medium">
                                    <circle class="gauge-base" r="53" cx="60" cy="60"/>
                                    <circle class="gauge-arc" transform="rotate(-90 60 60)" r="53" cx="60" cy="60" stroke-dasharray="4.177777777777778 329"/>
                                    <text x="60" y="50" dominant-baseline="central">20</text>
                                    <text x="60" y="80" dominant-baseline="central" class="secondary">/1575</text>
                                </svg>
                                <span class="title">Medium</span>
                            </div>
                            <div class="category column">
                                <svg xmlns="http://www.w3.org/2000/svg" viewBox="0 0 120 120" width="50" height="50" class="gauge hard">
                                    <circle class="gauge-base" r="53" cx="60" cy="60"/>
                                    <circle class="gauge-arc" transform="rotate(-90 60 60)" r="53" cx="60" cy="60" stroke-dasharray="2.515290519877676 329"/>
                                    <text x="60" y="50" dominant-baseline="central">5</text>
                                    <text x="60" y="80" dominant-baseline="central" class="secondary">/654</text>
                                </svg>
                                <span class="title">Hard</span>
                            </div>
                        </section>
                    </div>
                </section>
                <section class="leetcode subsection">
                    <h2 class="field">
                        <svg xmlns="http://www.w3.org/2000/svg" viewBox="0 0 16 16" width="16" height="16">
                            <path fill-rule="evenodd" d="M2.5 7.775V2.75a.25.25 0 01.25-.25h5.025a.25.25 0 01.177.073l6.25 6.25a.25.25 0 010 .354l-5.025 5.025a.25.25 0 01-.354 0l-6.25-6.25a.25.25 0 01-.073-.177zm-1.5 0V2.75C1 1.784 1.784 1 2.75 1h5.025c.464 0 .91.184 1.238.513l6.25 6.25a1.75 1.75 0 010 2.474l-5.026 5.026a1.75 1.75 0 01-2.474 0l-6.25-6.25A1.75 1.75 0 011 7.775zM6 5a1 1 0 100 2 1 1 0 000-2z"/>
                        </svg>
                        Skills
                    </h2>
                    <div class="topics">
                        <div class="label fundamental"><span class="dot">⬤</span> String <span class="count">x7</span></div>
                        <div class="label intermediate"><span class="dot">⬤</span> Database <span class="count">x5</span></div>
                        <div class="label advanced"><span class="dot">⬤</span> Dynamic Programming <span class="count">x4</span></div>
                        <div class="label intermediate"><span class="dot">⬤</span> Math <span class="count">x4</span></div>
                        <div class="label fundamental"><span class="dot">⬤</span> Array <span class="count">x4</span></div>
                        <div class="label intermediate"><span class="dot">⬤</span> Hash Table <span class="count">x3</span></div>
                        <div class="label intermediate"><span class="dot">⬤</span> Greedy <span class="count">x3</span></div>
                        <div class="label intermediate"><span class="dot">⬤</span> Recursion <span class="count">x2</span></div>
                        <div class="label advanced"><span class="dot">⬤</span> Divide and Conquer <span class="count">x1</span></div>
                        <div class="label intermediate"><span class="dot">⬤</span> Graph <span class="count">x1</span></div>
                    </div>
                </section>
                <section class="leetcode subsection">
                    <h2 class="field">
                        <svg xmlns="http://www.w3.org/2000/svg" viewBox="0 0 16 16" width="16" height="16">
                            <path fill-rule="evenodd" d="M2.5 1.75a.25.25 0 01.25-.25h8.5a.25.25 0 01.25.25v7.736a.75.75 0 101.5 0V1.75A1.75 1.75 0 0011.25 0h-8.5A1.75 1.75 0 001 1.75v11.5c0 .966.784 1.75 1.75 1.75h3.17a.75.75 0 000-1.5H2.75a.25.25 0 01-.25-.25V1.75zM4.75 4a.75.75 0 000 1.5h4.5a.75.75 0 000-1.5h-4.5zM4 7.75A.75.75 0 014.75 7h2a.75.75 0 010 1.5h-2A.75.75 0 014 7.75zm11.774 3.537a.75.75 0 00-1.048-1.074L10.7 14.145 9.281 12.72a.75.75 0 00-1.062 1.058l1.943 1.95a.75.75 0 001.055.008l4.557-4.45z"/>
                        </svg>
                        Recent submissions
                    </h2>
                    <div class="field">
                        <svg xmlns="http://www.w3.org/2000/svg" viewBox="0 0 16 16" width="16" height="16">
                            <path fill-rule="evenodd" d="M8 5.5a2.5 2.5 0 100 5 2.5 2.5 0 000-5zM4 8a4 4 0 118 0 4 4 0 01-8 0z"/>
                        </svg>
                        <div class="infos">
                            <div class="title">Integer to Roman</div>
                            <div class="date">15 Dec 2023</div>
                        </div>
                    </div>
                    <div class="field">
                        <svg xmlns="http://www.w3.org/2000/svg" viewBox="0 0 16 16" width="16" height="16">
                            <path fill-rule="evenodd" d="M8 5.5a2.5 2.5 0 100 5 2.5 2.5 0 000-5zM4 8a4 4 0 118 0 4 4 0 01-8 0z"/>
                        </svg>
                        <div class="infos">
                            <div class="title">Champagne Tower</div>
                            <div class="date">24 Sept 2023</div>
                        </div>
                    </div>
                </section>
            </section>
            <section>
                <h2 class="field">
                    <svg xmlns="http://www.w3.org/2000/svg" viewBox="0 0 16 16" width="16" height="16">
                        <path fill-rule="evenodd" d="M4 1.75C4 .784 4.784 0 5.75 0h5.586c.464 0 .909.184 1.237.513l2.914 2.914c.329.328.513.773.513 1.237v8.586A1.75 1.75 0 0114.25 15h-9a.75.75 0 010-1.5h9a.25.25 0 00.25-.25V6h-2.75A1.75 1.75 0 0110 4.25V1.5H5.75a.25.25 0 00-.25.25v2.5a.75.75 0 01-1.5 0v-2.5zm7.5-.188V4.25c0 .138.112.25.25.25h2.688a.252.252 0 00-.011-.013l-2.914-2.914a.272.272 0 00-.013-.011zM5.72 6.72a.75.75 0 000 1.06l1.47 1.47-1.47 1.47a.75.75 0 101.06 1.06l2-2a.75.75 0 000-1.06l-2-2a.75.75 0 00-1.06 0zM3.28 7.78a.75.75 0 00-1.06-1.06l-2 2a.75.75 0 000 1.06l2 2a.75.75 0 001.06-1.06L1.81 9.25l1.47-1.47z"/>
                    </svg>
                    Code snippet of the day
                </h2>
                <div class="row">
                    <section class="largeable-column-fields">
                        <div class="field">
                            <svg xmlns="http://www.w3.org/2000/svg" viewBox="0 0 16 16" width="16" height="16">
                                <path fill-rule="evenodd" d="M8 1.5a6.5 6.5 0 100 13 6.5 6.5 0 000-13zM0 8a8 8 0 1116 0A8 8 0 010 8zm6.5-.25A.75.75 0 017.25 7h1a.75.75 0 01.75.75v2.75h.25a.75.75 0 010 1.5h-2a.75.75 0 010-1.5h.25v-2h-.25a.75.75 0 01-.75-.75zM8 6a1 1 0 100-2 1 1 0 000 2z"/>
                            </svg>
                            No recent code snippet found
                        </div>
                    </section>
                </div>
            </section>
        </div>
        <div xmlns="http://www.w3.org/1999/xhtml" id="metrics-end"></div>
    </foreignObject>
</svg>